# xmcd
#
# Track frame offsets: 
#        182
#        19990
#        38907
#        57977
#        76632
#        93020
#        108955
#        128182
#        143725
#        162330
#
# Disc length: 2391 seconds
#
# Revision: 4
# Processed by: cddbd v1.5.1PL2 Copyright (c) Steve Scherf et al.
# Submitted via: ExactAudioCopy v0.95b3
#
DISCID=7509550a
DTITLE=David Lynn Jones - Wood, Wind And Stone
DYEAR=1990
DGENRE=Country
TTITLE0=I Fee lA Change Comin' On
TTITLE1=Lonely Town
TTITLE2=Walkin' Through The Fire
TTITLE3=When Times Were Good
TTITLE4=Let It Fade
TTITLE5=Ain't No Easy Roads
TTITLE6=Stumblin' Stone
TTITLE7=One Song
TTITLE8=We Were All ALot Older Then
TTITLE9=Our Father's Son
EXTD=more info\nMillenniumMusicProjectFormat, syntax as follows:\nTitl
EXTD=e{Subtitle}[info](Lyricist;Composer;Date,Artist,Location)[info]\n
EXTD=corrections to: windking3@yahoo.com
EXTT0=
EXTT1=
EXTT2=
EXTT3=
EXTT4=
EXTT5=
EXTT6=
EXTT7=
EXTT8=
EXTT9=
PLAYORDER=
